<?xml version="1.0" encoding="UTF-8" standalone="no" ?>
<!DOCTYPE svg PUBLIC "-//W3C//DTD SVG 1.1//EN" "http://www.w3.org/Graphics/SVG/1.1/DTD/svg11.dtd">
<svg xmlns="http://www.w3.org/2000/svg" xmlns:xlink="http://www.w3.org/1999/xlink" version="1.1" width="1080" height="1080" viewBox="0 0 1080 1080" xml:space="preserve">
<desc>Created with Fabric.js 5.2.4</desc>
<defs>
</defs>
<g transform="matrix(1 0 0 1 540 540)" id="622bc1d4-770c-44e0-99ca-9c842d1fb7c1"  >
<rect style="stroke: none; stroke-width: 1; stroke-dasharray: none; stroke-linecap: butt; stroke-dashoffset: 0; stroke-linejoin: miter; stroke-miterlimit: 4; fill: rgb(255,255,255); fill-rule: nonzero; opacity: 1; visibility: hidden;" vector-effect="non-scaling-stroke"  x="-540" y="-540" rx="0" ry="0" width="1080" height="1080" />
</g>
<g transform="matrix(1 0 0 1 540 540)" id="61d706e4-02f2-438e-979d-38481ef9193c"  >
</g>
<g transform="matrix(1.56 0.62 -0.62 1.56 147.43 428.61)"  >
<g style="" vector-effect="non-scaling-stroke"   >
		<g transform="matrix(1 0 0 1 0 -12.13)"  >
<path style="stroke: none; stroke-width: 1; stroke-dasharray: none; stroke-linecap: butt; stroke-dashoffset: 0; stroke-linejoin: miter; stroke-miterlimit: 4; fill: rgb(101,101,101); fill-rule: nonzero; opacity: 1;" vector-effect="non-scaling-stroke"  transform=" translate(-50, -37.87)" d="M 78.954 13.423 L 21.042 13.423 C 19.004 13.423 17.340000000000003 15.087 17.340000000000003 17.127 L 17.340000000000003 58.616 C 17.340000000000003 60.653 19.004000000000005 62.317 21.042 62.317 L 78.95400000000001 62.317 C 80.995 62.317 82.659 60.653 82.659 58.616 L 82.659 17.126 C 82.659 15.087 80.995 13.423 78.954 13.423 z M 76.273 51.637 C 76.273 53.033 75.145 54.159 73.747 54.159 L 26.249 54.159 C 24.855 54.159 23.727 53.033 23.727 51.637 L 23.727 23.245 C 23.727 21.849 24.855 20.721 26.249 20.721 L 73.747 20.721 C 75.145 20.721 76.273 21.849 76.273 23.245 L 76.273 51.637 z" stroke-linecap="round" />
</g>
		<g transform="matrix(1 0 0 1 0 26.33)"  >
<path style="stroke: none; stroke-width: 1; stroke-dasharray: none; stroke-linecap: butt; stroke-dashoffset: 0; stroke-linejoin: miter; stroke-miterlimit: 4; fill: rgb(101,101,101); fill-rule: nonzero; opacity: 1;" vector-effect="non-scaling-stroke"  transform=" translate(-50, -76.33)" d="M 80.726 66.074 L 19.271 66.074 C 18.146 66.074 17.34 66.931 17.34 68.007 L 17.34 84.646 C 17.34 85.666 18.146 86.577 19.271 86.577 L 80.726 86.577 C 81.854 86.577 82.66 85.666 82.66 84.646 L 82.66 68.007 C 82.659 66.932 81.854 66.074 80.726 66.074 z M 75.09 75.092 L 59.203 75.092 C 58.293000000000006 75.092 57.594 74.395 57.594 73.482 C 57.594 72.569 58.293 71.872 59.203 71.872 L 75.09 71.872 C 76.003 71.872 76.754 72.569 76.754 73.482 C 76.754 74.395 76.003 75.092 75.09 75.092 z" stroke-linecap="round" />
</g>
</g>
</g>
<g transform="matrix(1.93 -0.99 0.99 1.93 315.4 647.62)"  >
<g style="" vector-effect="non-scaling-stroke"   >
		<g transform="matrix(1 0 0 1 0 0)"  >
<path style="stroke: none; stroke-width: 1; stroke-dasharray: none; stroke-linecap: butt; stroke-dashoffset: 0; stroke-linejoin: miter; stroke-miterlimit: 4; fill: rgb(101,101,101); fill-rule: nonzero; opacity: 1;" vector-effect="non-scaling-stroke"  transform=" translate(-50, -50)" d="M 50 12.774 C 29.425 12.774 12.773000000000003 29.424999999999997 12.773000000000003 50.001 C 12.773000000000003 70.524 29.424000000000003 87.227 50 87.227 C 70.526 87.227 87.227 70.524 87.227 50.001000000000005 C 87.227 29.425 70.526 12.774 50 12.774 z M 50 83.906 C 31.236 83.906 16.094 68.714 16.094 50.00000000000001 C 16.094 31.236000000000008 31.236 16.09400000000001 50 16.09400000000001 C 68.714 16.09400000000001 83.906 31.236000000000008 83.906 50.00000000000001 C 83.906 68.714 68.714 83.906 50 83.906 z" stroke-linecap="round" />
</g>
		<g transform="matrix(1 0 0 1 22.13 3.98)"  >
<path style="stroke: none; stroke-width: 1; stroke-dasharray: none; stroke-linecap: butt; stroke-dashoffset: 0; stroke-linejoin: miter; stroke-miterlimit: 4; fill: rgb(101,101,101); fill-rule: nonzero; opacity: 1;" vector-effect="non-scaling-stroke"  transform=" translate(-72.13, -53.98)" d="M 80.235 49.295 C 79.982 50.654 78.977 51.005 77.216 50.302 C 76.21 46.981 72.99 46.378 69.66999999999999 45.874 C 71.37799999999999 44.416000000000004 73.99499999999999 43.058 75.35499999999999 46.378 C 77.216 46.931 78.02 45.773 79.88099999999999 46.931 C 80.939 47.032 81.94399999999999 46.980999999999995 83.00099999999999 47.082 C 81.39299999999999 32.443 79.47899999999998 38.328 71.077 35.462 C 67.655 31.186000000000003 66.851 34.204 67.205 41.800000000000004 C 65.142 42.455000000000005 62.477 44.316 65.493 47.886 C 56.940999999999995 54.928000000000004 61.218999999999994 63.282000000000004 72.134 60.915000000000006 L 72.134 74.45 C 78.623 67.757 83.355 60.31100000000001 83.30199999999999 50.604 C 82.901 48.893 81.896 48.441 80.235 49.295 z" stroke-linecap="round" />
</g>
		<g transform="matrix(1 0 0 1 -14.69 1.18)"  >
<polygon style="stroke: none; stroke-width: 1; stroke-dasharray: none; stroke-linecap: butt; stroke-dashoffset: 0; stroke-linejoin: miter; stroke-miterlimit: 4; fill: rgb(101,101,101); fill-rule: nonzero; opacity: 1;" vector-effect="non-scaling-stroke"  points="17.31,11.55 17.15,11.34 17,11.09 16.75,10.89 16.45,10.74 16.1,10.54 15.69,10.39 15.24,10.24 14.69,10.14 14.14,10.04 13.58,9.93 12.93,9.88 11.92,9.88 11.57,9.23 11.32,8.93 11.12,8.58 10.87,8.22 10.61,7.92 10.36,7.57 10.11,7.27 9.81,6.92 9.51,6.62 9.21,6.31 8.9,6.01 8.55,5.71 8.2,5.41 7.85,5.16 7.5,4.9 7.14,4.66 6.74,4.45 6.34,4.2 5.94,4 5.53,3.85 5.08,3.7 4.63,3.55 4.17,3.4 3.67,3.3 3.22,3.24 2.72,3.2 2.16,3.14 1.66,3.14 1.11,3.14 0.55,3.2 0,3.3 -0.8,3.45 -1.71,2.94 -2.41,2.54 -3.07,2.09 -3.72,1.63 -4.33,1.13 -4.93,0.68 -5.48,0.17 -5.99,-0.33 -6.49,-0.78 -6.89,-1.23 -7.29,-1.74 -7.65,-2.14 -8,-2.54 -8.25,-2.94 -8.45,-3.3 -8.55,-3.65 -8.65,-4 -8.55,-4.45 -8.25,-4.75 -7.9,-4.9 -7.5,-5.01 -7.09,-5.06 -6.59,-5.06 -6.04,-5.01 -5.48,-4.9 -4.83,-4.75 -4.12,-4.55 -3.42,-4.25 -2.67,-3.9 -1.81,-3.5 -1.01,-2.99 -0.45,-2.64 -0.35,-2.69 -0.1,-2.99 0.1,-3.3 0.25,-3.75 0.3,-4.25 0.4,-4.8 0.45,-5.46 0.5,-6.11 0.65,-6.77 0.86,-7.42 1.21,-8.12 1.71,-8.73 2.36,-9.28 3.17,-9.79 4.23,-10.14 5.28,-10.34 5.78,-10.79 6.44,-11.34 7.14,-11.85 7.8,-12.3 8.5,-12.7 9.16,-13.11 9.76,-13.46 10.31,-13.81 10.82,-14.11 11.22,-14.41 11.57,-14.72 11.77,-14.92 11.87,-15.07 11.87,-15.17 11.87,-15.22 11.77,-15.32 11.47,-15.47 10.97,-15.72 10.56,-16.02 10.11,-16.37 9.71,-16.73 9.36,-17.13 9,-17.53 8.65,-17.93 8.35,-18.39 8.05,-18.84 7.8,-19.29 7.55,-19.74 7.34,-20.2 7.14,-20.65 6.94,-21.1 6.84,-21.56 6.69,-22.01 6.59,-22.41 6.54,-22.81 6.49,-23.22 6.49,-23.62 6.54,-24.02 6.59,-24.37 6.69,-24.68 6.84,-25.03 7.04,-25.28 7.29,-25.53 7.6,-25.73 7.95,-25.83 8.35,-25.83 8.75,-25.78 8.9,-25.73 8.95,-25.78 8.95,-25.83 8.8,-26.08 8.55,-26.39 8.25,-26.74 7.85,-27.09 7.34,-27.44 6.84,-27.74 6.29,-28.05 5.68,-28.25 5.13,-28.4 4.58,-28.45 4.07,-28.4 3.87,-28.35 3.72,-27.95 3.47,-27.24 3.27,-26.59 3.12,-25.93 2.97,-25.28 2.82,-24.68 2.72,-24.07 2.62,-23.47 2.57,-22.86 2.51,-22.31 2.46,-21.76 2.41,-21.25 2.36,-20.75 2.31,-20.25 2.31,-19.8 2.26,-19.34 2.26,-18.89 2.21,-18.49 2.21,-18.08 2.16,-17.73 2.11,-17.33 2.06,-17.03 1.96,-16.73 1.86,-16.43 1.71,-16.12 1.56,-15.87 1.36,-15.62 1.11,-15.42 0.81,-15.32 0.5,-15.22 0.15,-15.17 -0.35,-15.22 -1.51,-16.02 -2.46,-16.68 -3.22,-17.28 -3.87,-17.88 -4.43,-18.44 -4.88,-18.94 -5.18,-19.44 -5.43,-20 -5.53,-20.5 -5.58,-20.95 -5.48,-21.46 -5.33,-21.86 -5.08,-22.26 -4.83,-22.66 -4.53,-23.02 -4.18,-23.32 -3.82,-23.67 -3.47,-23.97 -3.12,-24.32 -2.77,-24.68 -2.41,-25.03 -2.06,-25.38 -1.76,-25.78 -1.46,-26.18 -1.21,-26.64 -1.01,-27.09 -0.85,-27.59 -0.75,-28.15 -0.7,-28.7 -0.75,-29.35 -0.85,-30.06 -1.11,-29.96 -1.51,-29.71 -2.01,-29.4 -2.52,-29.1 -3.07,-28.75 -3.72,-28.35 -4.33,-27.9 -5.03,-27.39 -5.73,-26.89 -6.44,-26.34 -7.14,-25.73 -7.9,-25.08 -8.65,-24.42 -9.41,-23.72 -10.11,-22.91 -10.87,-22.11 -11.57,-21.3 -12.27,-20.4 -12.98,-19.49 -13.58,-18.49 -14.24,-17.48 -14.79,-16.43 -15.34,-15.32 -15.85,-14.21 -16.25,-13 -16.65,-11.8 -16.95,-10.49 -17.25,-9.18 -17.41,-7.82 -17.51,-6.56 -17.36,-6.16 -17.1,-5.71 -16.75,-5.26 -16.4,-4.8 -16.05,-4.35 -15.59,-3.9 -15.14,-3.5 -14.64,-3.04 -14.08,-2.64 -13.53,-2.24 -12.98,-1.84 -12.38,-1.43 -11.77,-1.08 -11.17,-0.68 -10.51,-0.33 -9.86,0.02 -9.26,0.38 -8.6,0.73 -7.95,1.08 -7.35,1.43 -6.69,1.78 -6.09,2.14 -5.48,2.49 -4.88,2.79 -4.33,3.14 -3.77,3.5 -3.27,3.85 -2.77,4.2 -2.31,4.55 -1.91,4.9 -1.51,5.26 -0.85,6.01 -1.51,6.82 -1.76,7.17 -2.01,7.57 -2.21,7.92 -2.41,8.28 -2.52,8.63 -2.62,8.98 -2.72,9.33 -2.77,9.63 -2.77,9.99 -2.77,10.29 -2.72,10.64 -2.67,10.94 -2.62,11.24 -2.52,11.55 -2.36,11.85 -2.21,12.15 -2.06,12.45 -1.86,12.75 -1.66,13 -1.46,13.31 -1.21,13.56 -0.96,13.81 -0.7,14.06 -0.4,14.31 -0.1,14.56 0.2,14.77 0.55,15.02 0.86,15.22 1.21,15.42 1.56,15.62 2.31,16.02 2.11,16.88 1.96,17.28 1.86,17.68 1.71,18.09 1.56,18.49 1.41,18.89 1.21,19.29 1.06,19.65 0.86,20.05 0.71,20.4 0.5,20.75 0.35,21.15 0.15,21.51 0,21.86 -0.15,22.21 -0.3,22.56 -0.45,22.96 -0.6,23.32 -0.7,23.67 -0.8,24.02 -0.9,24.37 -1.01,24.72 -1.06,25.13 -1.11,25.48 -1.16,25.83 -1.16,26.23 -1.16,26.59 -1.11,26.99 -1.06,27.39 -0.96,27.8 -0.96,27.89 -0.7,27.84 -0.15,27.84 0.35,28 0.75,28.3 1.11,28.6 1.41,28.9 1.76,29.25 2.01,29.56 2.31,29.8 2.57,29.96 2.72,30.06 2.87,30.06 3.02,30.06 3.17,29.91 3.47,29.6 3.97,28.9 4.53,28.25 5.08,27.54 5.63,26.94 6.19,26.28 6.79,25.68 7.34,25.13 7.95,24.52 8.5,23.97 9.11,23.42 9.66,22.91 10.21,22.36 10.82,21.86 11.32,21.36 11.87,20.9 12.43,20.4 12.93,19.9 13.38,19.44 13.88,18.94 14.34,18.49 14.74,18.03 15.14,17.58 15.54,17.08 15.9,16.63 16.2,16.17 16.5,15.67 16.75,15.22 16.95,14.77 17.15,14.26 17.31,13.76 17.41,13.31 17.46,12.75 17.51,12.4 17.51,12.1 17.41,11.8 " />
</g>
		<g transform="matrix(1 0 0 1 1.76 -24.77)"  >
<path style="stroke: none; stroke-width: 1; stroke-dasharray: none; stroke-linecap: butt; stroke-dashoffset: 0; stroke-linejoin: miter; stroke-miterlimit: 4; fill: rgb(101,101,101); fill-rule: nonzero; opacity: 1;" vector-effect="non-scaling-stroke"  transform=" translate(-51.76, -25.23)" d="M 42.103 20.521 C 49.599000000000004 20.671 46.58 32.998000000000005 51.410000000000004 32.845 C 54.379000000000005 28.166999999999998 66.101 27.11 63.231 19.817999999999998 C 56.24 17.401999999999997 48.541000000000004 17.049999999999997 39.99 18.409 C 39.385 19.313 40.693 20.471 42.103 20.521 z" stroke-linecap="round" />
</g>
</g>
</g>
<g transform="matrix(1.04 -1.04 1.04 1.04 879.4 400.51)"  >
<g style="" vector-effect="non-scaling-stroke"   >
		<g transform="matrix(1 0 0 1 -24.17 24.17)"  >
<path style="stroke: none; stroke-width: 1; stroke-dasharray: none; stroke-linecap: butt; stroke-dashoffset: 0; stroke-linejoin: miter; stroke-miterlimit: 4; fill: rgb(101,101,101); fill-rule: nonzero; opacity: 1;" vector-effect="non-scaling-stroke"  transform=" translate(-25.83, -74.17)" d="M 25.828 61.903 C 32.604 61.903 38.096000000000004 67.395 38.096000000000004 74.169 C 38.096000000000004 80.947 32.604000000000006 86.44 25.828000000000003 86.44 C 19.054000000000002 86.44 13.560000000000002 80.948 13.560000000000002 74.169 C 13.56 67.396 19.054 61.903 25.828 61.903 z" stroke-linecap="round" />
</g>
		<g transform="matrix(1 0 0 1 0 0)"  >
<path style="stroke: none; stroke-width: 1; stroke-dasharray: none; stroke-linecap: butt; stroke-dashoffset: 0; stroke-linejoin: miter; stroke-miterlimit: 4; fill: rgb(101,101,101); fill-rule: nonzero; opacity: 1;" vector-effect="non-scaling-stroke"  transform=" translate(-50, -50)" d="M 20.339 27.172 C 16.584999999999997 27.172 13.558999999999997 24.092 13.558999999999997 20.339 C 13.558999999999997 16.584999999999997 16.584999999999997 13.561 20.339 13.561 C 38.599000000000004 13.561 55.126 20.954 67.114 32.887 C 79.045 44.873000000000005 86.43900000000001 61.397999999999996 86.43900000000001 79.662 C 86.43900000000001 83.41300000000001 83.414 86.43900000000001 79.662 86.43900000000001 C 75.906 86.43900000000001 72.82700000000001 83.41300000000001 72.82700000000001 79.662 C 72.82700000000001 65.153 67.00200000000001 52.04600000000001 57.48000000000001 42.52 C 47.956 33.055 34.848 27.172 20.339 27.172 z" stroke-linecap="round" />
</g>
		<g transform="matrix(1 0 0 1 -10.67 10.7)"  >
<path style="stroke: none; stroke-width: 1; stroke-dasharray: none; stroke-linecap: butt; stroke-dashoffset: 0; stroke-linejoin: miter; stroke-miterlimit: 4; fill: rgb(101,101,101); fill-rule: nonzero; opacity: 1;" vector-effect="non-scaling-stroke"  transform=" translate(-39.33, -60.7)" d="M 20.339 48.515 C 16.584999999999997 48.515 13.558999999999997 45.491 13.558999999999997 41.737 C 13.558999999999997 37.984 16.584999999999997 34.96 20.339 34.96 C 32.719 34.96 43.866 39.945 51.988 48.012 C 60.054 56.134 65.095 67.28 65.095 79.663 C 65.095 83.414 62.015 86.44 58.263 86.44 C 54.507999999999996 86.44 51.485 83.414 51.485 79.663 C 51.485 71.036 48.010999999999996 63.306 42.353 57.646 C 36.753 52.046 28.966 48.515 20.339 48.515 z" stroke-linecap="round" />
</g>
</g>
</g>
<g transform="matrix(1.99 -0.78 0.78 1.99 886.25 906.83)"  >
<g style="" vector-effect="non-scaling-stroke"   >
		<g transform="matrix(1 0 0 1 -15.06 3.04)"  >
<path style="stroke: none; stroke-width: 1; stroke-dasharray: none; stroke-linecap: butt; stroke-dashoffset: 0; stroke-linejoin: miter; stroke-miterlimit: 4; fill: rgb(101,101,101); fill-rule: nonzero; opacity: 1;" vector-effect="non-scaling-stroke"  transform=" translate(-34.94, -53.04)" d="M 16.583 30.762 L 42.528 30.762 C 43.985 30.762 45.179 31.853 45.336999999999996 33.205 L 40.708999999999996 37.884 C 39.409 39.133 38.785 40.797 38.785 42.461 C 38.785 42.721 38.785 42.981 38.836999999999996 43.24 L 28.698 43.24 C 26.826 43.24 24.85 44.801 24.279 46.672000000000004 L 16.114 75.322 C 14.763000000000002 75.114 13.722000000000001 73.96900000000001 13.722000000000001 72.565 L 13.722000000000001 33.569 C 13.723 32.008 15.023 30.762 16.583 30.762 z M 56.151 43.24 L 56.047000000000004 43.24 L 56.151 43.188 L 56.151 43.24 z" stroke-linecap="round" />
</g>
		<g transform="matrix(1 0 0 1 2.28 13)"  >
<path style="stroke: none; stroke-width: 1; stroke-dasharray: none; stroke-linecap: butt; stroke-dashoffset: 0; stroke-linejoin: miter; stroke-miterlimit: 4; fill: rgb(101,101,101); fill-rule: nonzero; opacity: 1;" vector-effect="non-scaling-stroke"  transform=" translate(-52.28, -63)" d="M 86.153 49.011 L 78.19600000000001 76.98400000000001 C 77.67600000000002 78.64800000000001 75.909 80.052 74.24500000000002 80.052 L 20.585000000000022 80.052 C 18.923000000000023 80.052 17.934000000000022 78.64800000000001 18.403000000000024 76.98400000000001 L 26.410000000000025 49.01100000000001 C 26.878000000000025 47.34700000000001 28.646000000000026 45.94300000000001 30.362000000000023 45.94300000000001 L 39.77400000000002 45.94300000000001 C 40.03400000000002 46.360000000000014 40.34500000000002 46.72400000000001 40.709000000000024 47.088000000000015 L 40.709000000000024 47.140000000000015 C 42.99700000000002 49.271000000000015 46.532000000000025 47.91900000000002 50.58800000000002 45.94300000000001 L 56.15200000000002 45.94300000000001 L 56.15200000000002 65.23400000000001 C 56.15200000000002 67.93900000000001 58.38700000000002 70.174 61.090000000000025 70.174 L 65.87400000000002 70.174 C 68.57700000000003 70.174 70.76300000000002 67.93900000000001 70.76300000000002 65.23400000000001 L 70.76300000000002 45.943 L 75.49300000000002 45.943 C 79.39300000000003 47.867 82.87700000000002 49.114999999999995 85.32000000000002 47.242999999999995 L 85.42400000000002 47.190999999999995 L 85.52800000000002 47.086999999999996 C 85.63200000000002 46.983 85.73600000000002 46.879 85.78800000000003 46.775 C 86.258 47.295 86.411 48.128 86.153 49.011 z" stroke-linecap="round" />
</g>
		<g transform="matrix(1 0 0 1 13.1 -5.82)"  >
<path style="stroke: none; stroke-width: 1; stroke-dasharray: none; stroke-linecap: butt; stroke-dashoffset: 0; stroke-linejoin: miter; stroke-miterlimit: 4; fill: rgb(101,101,101); fill-rule: nonzero; opacity: 1;" vector-effect="non-scaling-stroke"  transform=" translate(-63.1, -44.18)" d="M 84.28 45.839 C 86.099 43.967 86.099 40.952 84.28 39.132 L 66.445 21.35 C 64.62599999999999 19.478 61.61099999999999 19.478 59.73899999999999 21.35 L 41.957 39.132 C 40.085 40.952 40.085 43.967 41.957 45.839 C 44.504 48.233 51.574 42.98 57.919 40.485 L 57.919 65.234 C 57.919 67.002 59.373999999999995 68.40599999999999 61.089999999999996 68.40599999999999 L 65.874 68.40599999999999 C 67.591 68.40599999999999 68.993 67.002 68.993 65.234 L 68.993 40.796 C 75.026 43.344 81.421 48.024 84.28 45.839 z" stroke-linecap="round" />
</g>
		<g transform="matrix(1 0 0 1 13.1 -5.82)"  >
<path style="stroke: none; stroke-width: 1; stroke-dasharray: none; stroke-linecap: butt; stroke-dashoffset: 0; stroke-linejoin: miter; stroke-miterlimit: 4; fill: rgb(101,101,101); fill-rule: nonzero; opacity: 1;" vector-effect="non-scaling-stroke"  transform=" translate(-63.1, -44.18)" d="M 84.28 45.839 C 86.099 43.967 86.099 40.952 84.28 39.132 L 66.445 21.35 C 64.62599999999999 19.478 61.61099999999999 19.478 59.73899999999999 21.35 L 41.957 39.132 C 40.085 40.952 40.085 43.967 41.957 45.839 C 44.504 48.233 51.574 42.98 57.919 40.485 L 57.919 65.234 C 57.919 67.002 59.373999999999995 68.40599999999999 61.089999999999996 68.40599999999999 L 65.874 68.40599999999999 C 67.591 68.40599999999999 68.993 67.002 68.993 65.234 L 68.993 40.796 C 75.026 43.344 81.421 48.024 84.28 45.839 z" stroke-linecap="round" />
</g>
</g>
</g>
<g transform="matrix(1.28 0.58 -0.58 1.28 107.96 969.79)"  >
<g style="" vector-effect="non-scaling-stroke"   >
		<g transform="matrix(1 0 0 1 0 0)"  >
<path style="stroke: none; stroke-width: 1; stroke-dasharray: none; stroke-linecap: butt; stroke-dashoffset: 0; stroke-linejoin: miter; stroke-miterlimit: 4; fill: rgb(101,101,101); fill-rule: nonzero; opacity: 1;" vector-effect="non-scaling-stroke"  transform=" translate(-50, -50)" d="M 66.305 29.253 L 66.305 13.941 L 19.531 13.941 L 19.531 86.059 L 80.47 86.059 L 80.47 29.253 L 66.305 29.253 z M 67.402 53.187 L 47.856 72.732 L 47.804 72.786 L 47.752 72.786 L 47.7 72.837 L 47.7 72.891 L 47.648 72.941 L 47.596000000000004 72.941 L 47.544000000000004 72.99600000000001 L 47.492000000000004 72.99600000000001 L 47.440000000000005 73.05000000000001 L 47.387 73.1 L 47.335 73.1 L 47.283 73.154 L 47.229 73.154 L 47.179 73.205 L 47.125 73.205 L 47.073 73.259 L 46.969 73.259 L 46.917 73.31 L 46.813 73.31 L 46.761 73.364 L 46.552 73.364 L 46.5 73.414 L 45.821 73.414 L 45.769 73.364 L 45.612 73.364 L 45.56 73.31 L 45.456 73.31 L 45.404 73.259 L 45.24700000000001 73.259 L 45.193000000000005 73.205 L 45.141000000000005 73.205 C 44.93300000000001 73.101 44.67100000000001 72.941 44.462 72.733 L 32.596 60.817 C 31.654999999999998 59.877 31.654999999999998 58.361 32.596 57.421 L 34.477 55.541 C 35.416999999999994 54.598 36.933 54.598 37.873999999999995 55.541 L 46.18299999999999 63.797999999999995 L 62.07199999999999 47.91 C 63.01099999999999 46.968999999999994 64.52799999999999 46.968999999999994 65.46799999999999 47.91 L 67.40199999999999 49.79 C 68.292 50.732 68.292 52.247 67.402 53.187 z" stroke-linecap="round" />
</g>
		<g transform="matrix(1 0 0 1 24.64 -29.84)"  >
<polygon style="stroke: none; stroke-width: 1; stroke-dasharray: none; stroke-linecap: butt; stroke-dashoffset: 0; stroke-linejoin: miter; stroke-miterlimit: 4; fill: rgb(101,101,101); fill-rule: nonzero; opacity: 1;" vector-effect="non-scaling-stroke"  points="-5.2,-6.17 5.2,6.17 -5.2,6.17 " />
</g>
</g>
</g>
<g transform="matrix(1.63 0 0 1.63 540 884.72)"  >
<g style="" vector-effect="non-scaling-stroke"   >
		<g transform="matrix(1 0 0 1 -8.16 -8.82)"  >
<path style="stroke: none; stroke-width: 1; stroke-dasharray: none; stroke-linecap: butt; stroke-dashoffset: 0; stroke-linejoin: miter; stroke-miterlimit: 4; fill: rgb(101,101,101); fill-rule: nonzero; opacity: 1;" vector-effect="non-scaling-stroke"  transform=" translate(-41.84, -41.18)" d="M 51.895 37.497 L 45.522000000000006 37.497 L 45.522000000000006 31.181 C 45.522000000000006 29.149 43.876000000000005 27.502000000000002 41.843 27.502000000000002 C 39.867000000000004 27.502000000000002 38.218 29.148000000000003 38.218 31.181 L 38.218 37.497 L 31.849000000000004 37.497 C 29.870000000000005 37.497 28.224000000000004 39.145 28.166000000000004 41.177 C 28.223000000000003 43.209 29.869000000000003 44.858 31.849000000000004 44.858 L 38.218 44.858 L 38.218 51.174 C 38.218 53.205 39.868 54.854 41.843 54.854 C 43.875 54.854 45.522000000000006 53.205999999999996 45.522000000000006 51.174 L 45.522000000000006 44.858 L 51.895 44.858 C 53.871 44.858 55.521 43.209999999999994 55.521 41.177 C 55.521 39.144000000000005 53.87 37.497 51.895 37.497 z" stroke-linecap="round" />
</g>
		<g transform="matrix(1 0 0 1 0 0)"  >
<path style="stroke: none; stroke-width: 1; stroke-dasharray: none; stroke-linecap: butt; stroke-dashoffset: 0; stroke-linejoin: miter; stroke-miterlimit: 4; fill: rgb(101,101,101); fill-rule: nonzero; opacity: 1;" vector-effect="non-scaling-stroke"  transform=" translate(-50, -50)" d="M 84.464 72.431 L 68.152 56.063 C 67.933 55.843 67.657 55.623000000000005 67.384 55.403000000000006 C 69.745 51.230000000000004 71.062 46.452000000000005 71.062 41.342000000000006 C 71.062 25.303000000000004 57.991 12.287000000000006 41.952 12.287000000000006 C 25.912999999999997 12.287000000000006 12.899 25.303 12.899 41.342 C 12.899 57.379999999999995 25.914 70.451 41.952999999999996 70.451 C 46.455999999999996 70.451 50.687 69.40899999999999 54.476 67.59599999999999 C 54.752 68.03699999999999 55.080999999999996 68.41899999999998 55.463 68.80499999999999 L 71.778 85.11699999999999 C 75.29400000000001 88.57999999999998 81.00500000000001 88.57999999999998 84.464 85.11699999999999 C 87.979 81.603 87.979 75.89 84.464 72.431 z M 41.953 59.247 C 32.121 59.247 24.101000000000003 51.229 24.101000000000003 41.342 C 24.101000000000003 31.509999999999998 32.121 23.491 41.953 23.491 C 51.838 23.491 59.858000000000004 31.509999999999998 59.858000000000004 41.342 C 59.857 51.229 51.838 59.247 41.953 59.247 z" stroke-linecap="round" />
</g>
</g>
</g>
<g transform="matrix(1.63 -0.7 0.7 1.63 258.6 233.66)"  >
<g style="" vector-effect="non-scaling-stroke"   >
		<g transform="matrix(1 0 0 1 0.86 5.92)"  >
<path style="stroke: none; stroke-width: 1; stroke-dasharray: none; stroke-linecap: butt; stroke-dashoffset: 0; stroke-linejoin: miter; stroke-miterlimit: 4; fill: rgb(101,101,101); fill-rule: nonzero; opacity: 1;" vector-effect="non-scaling-stroke"  transform=" translate(-50.86, -55.92)" d="M 50.861 87.432 L 46.214999999999996 87.432 L 42.589999999999996 82.34400000000001 C 42.589999999999996 73.18400000000001 41.827 64.72600000000001 36.92699999999999 59.95500000000001 C 32.855999999999995 56.201000000000015 30.313999999999993 50.85900000000001 30.313999999999993 44.942000000000014 C 30.313999999999993 33.622000000000014 39.535 24.399000000000015 50.85999999999999 24.399000000000015 C 62.17999999999999 24.399000000000015 71.401 33.622000000000014 71.401 44.942000000000014 C 71.401 50.859000000000016 68.859 56.201000000000015 64.788 59.95500000000001 C 59.891999999999996 64.72600000000001 59.126 73.18400000000001 59.126 82.34400000000001 L 55.501 87.432 L 50.861 87.432 z M 44.625 74.33 L 57.093 74.33 C 57.794000000000004 67.77799999999999 59.574000000000005 60.908 62.81700000000001 57.792 C 66.31500000000001 54.547000000000004 68.48 49.969 68.48 44.879000000000005 C 68.48 35.148 60.591 27.261000000000006 50.86200000000001 27.261000000000006 C 41.12800000000001 27.261000000000006 33.239000000000004 35.148 33.239000000000004 44.879000000000005 C 33.239000000000004 49.96900000000001 35.404 54.547000000000004 38.84 57.792 C 42.083 60.908 43.928 67.778 44.625 74.33 z" stroke-linecap="round" />
</g>
		<g transform="matrix(1 0 0 1 27.51 -6.08)"  >
<path style="stroke: none; stroke-width: 1; stroke-dasharray: none; stroke-linecap: butt; stroke-dashoffset: 0; stroke-linejoin: miter; stroke-miterlimit: 4; fill: rgb(101,101,101); fill-rule: nonzero; opacity: 1;" vector-effect="non-scaling-stroke"  transform=" translate(-77.51, -43.93)" d="M 80.181 45.262 L 74.838 45.262 C 74.076 45.262 73.502 44.688 73.502 43.926 C 73.502 43.227000000000004 74.076 42.589 74.838 42.589 L 80.181 42.589 C 80.944 42.589 81.518 43.227 81.518 43.926 C 81.518 44.688 80.943 45.262 80.181 45.262 z" stroke-linecap="round" />
</g>
		<g transform="matrix(1 0 0 1 -27.51 -6.08)"  >
<path style="stroke: none; stroke-width: 1; stroke-dasharray: none; stroke-linecap: butt; stroke-dashoffset: 0; stroke-linejoin: miter; stroke-miterlimit: 4; fill: rgb(101,101,101); fill-rule: nonzero; opacity: 1;" vector-effect="non-scaling-stroke"  transform=" translate(-22.49, -43.93)" d="M 25.162 45.262 L 19.82 45.262 C 19.057 45.262 18.483 44.688 18.483 43.926 C 18.483 43.227000000000004 19.057000000000002 42.589 19.82 42.589 L 25.162 42.589 C 25.863 42.589 26.499 43.227 26.499 43.926 C 26.499 44.688 25.863 45.262 25.162 45.262 z" stroke-linecap="round" />
</g>
		<g transform="matrix(1 0 0 1 19.44 -25.51)"  >
<path style="stroke: none; stroke-width: 1; stroke-dasharray: none; stroke-linecap: butt; stroke-dashoffset: 0; stroke-linejoin: miter; stroke-miterlimit: 4; fill: rgb(101,101,101); fill-rule: nonzero; opacity: 1;" vector-effect="non-scaling-stroke"  transform=" translate(-69.44, -24.49)" d="M 72.297 23.571 L 68.47999999999999 27.325000000000003 C 67.97099999999999 27.833000000000002 67.14299999999999 27.833000000000002 66.63399999999999 27.325000000000003 C 66.05999999999999 26.816000000000003 66.05999999999999 25.988000000000003 66.63399999999999 25.416000000000004 L 70.38599999999998 21.665000000000003 C 70.89399999999998 21.154000000000003 71.78799999999998 21.154000000000003 72.29699999999998 21.665000000000003 C 72.805 22.173 72.805 23.063 72.297 23.571 z" stroke-linecap="round" />
</g>
		<g transform="matrix(1 0 0 1 -19.46 13.42)"  >
<path style="stroke: none; stroke-width: 1; stroke-dasharray: none; stroke-linecap: butt; stroke-dashoffset: 0; stroke-linejoin: miter; stroke-miterlimit: 4; fill: rgb(101,101,101); fill-rule: nonzero; opacity: 1;" vector-effect="non-scaling-stroke"  transform=" translate(-30.54, -63.42)" d="M 33.366 62.436 L 29.615 66.251 C 29.046 66.76100000000001 28.217 66.76100000000001 27.709 66.251 C 27.201 65.742 27.201 64.85300000000001 27.709 64.34400000000001 L 31.46 60.59100000000001 C 31.968 60.08200000000001 32.858000000000004 60.08200000000001 33.366 60.59100000000001 C 33.879 61.099 33.879 61.927 33.366 62.436 z" stroke-linecap="round" />
</g>
		<g transform="matrix(1 0 0 1 19.44 13.42)"  >
<path style="stroke: none; stroke-width: 1; stroke-dasharray: none; stroke-linecap: butt; stroke-dashoffset: 0; stroke-linejoin: miter; stroke-miterlimit: 4; fill: rgb(101,101,101); fill-rule: nonzero; opacity: 1;" vector-effect="non-scaling-stroke"  transform=" translate(-69.44, -63.42)" d="M 70.386 66.251 L 66.634 62.43600000000001 C 66.06 61.92700000000001 66.06 61.099000000000004 66.634 60.59100000000001 C 67.143 60.08200000000001 67.971 60.08200000000001 68.48 60.59100000000001 L 72.297 64.34400000000001 C 72.80499999999999 64.85300000000001 72.80499999999999 65.742 72.297 66.251 C 71.788 66.761 70.894 66.761 70.386 66.251 z" stroke-linecap="round" />
</g>
		<g transform="matrix(1 0 0 1 -19.46 -25.51)"  >
<path style="stroke: none; stroke-width: 1; stroke-dasharray: none; stroke-linecap: butt; stroke-dashoffset: 0; stroke-linejoin: miter; stroke-miterlimit: 4; fill: rgb(101,101,101); fill-rule: nonzero; opacity: 1;" vector-effect="non-scaling-stroke"  transform=" translate(-30.54, -24.49)" d="M 31.459 27.325 L 27.708 23.570999999999998 C 27.2 23.063 27.2 22.173 27.708 21.665 C 28.215999999999998 21.154 29.044999999999998 21.154 29.613999999999997 21.665 L 33.364999999999995 25.416 C 33.87799999999999 25.988 33.87799999999999 26.816 33.364999999999995 27.325 C 32.857 27.833 31.968 27.833 31.459 27.325 z" stroke-linecap="round" />
</g>
		<g transform="matrix(1 0 0 1 1.3 -33.39)"  >
<path style="stroke: none; stroke-width: 1; stroke-dasharray: none; stroke-linecap: butt; stroke-dashoffset: 0; stroke-linejoin: miter; stroke-miterlimit: 4; fill: rgb(101,101,101); fill-rule: nonzero; opacity: 1;" vector-effect="non-scaling-stroke"  transform=" translate(-51.3, -16.61)" d="M 49.967 19.311 L 49.967 13.902999999999999 C 49.967 13.203999999999999 50.541 12.568999999999999 51.303 12.568999999999999 C 52.004 12.568999999999999 52.64 13.203999999999999 52.64 13.902999999999999 L 52.64 19.311 C 52.64 20.01 52.004 20.645 51.303 20.645 C 50.541 20.646 49.967 20.01 49.967 19.311 z" stroke-linecap="round" />
</g>
</g>
</g>
<g transform="matrix(2 0.83 -0.83 2 655.99 622.59)"  >
<g style="" vector-effect="non-scaling-stroke"   >
		<g transform="matrix(1 0 0 1 -0.01 26.27)"  >
<path style="stroke: none; stroke-width: 1; stroke-dasharray: none; stroke-linecap: butt; stroke-dashoffset: 0; stroke-linejoin: miter; stroke-miterlimit: 4; fill: rgb(101,101,101); fill-rule: nonzero; opacity: 1;" vector-effect="non-scaling-stroke"  transform=" translate(-49.99, -76.27)" d="M 60.594 65.903 L 79.015 84.26 C 79.32000000000001 84.569 79.506 85 79.506 85.491 C 79.506 86.409 78.706 87.149 77.784 87.149 L 22.275 87.149 C 21.848 87.149 21.354999999999997 87.026 20.985999999999997 86.654 C 20.310999999999996 85.981 20.310999999999996 84.93599999999999 20.985999999999997 84.259 L 39.28399999999999 65.961 L 39.34599999999999 65.901 C 40.02299999999999 65.288 41.06599999999999 65.22399999999999 41.74099999999999 65.901 L 44.748999999999995 68.85 C 45.425999999999995 69.585 46.16199999999999 70.077 47.019999999999996 70.445 L 47.083 70.445 C 48.003 70.81299999999999 48.924 70.999 49.969 70.999 C 51.073 70.999 51.995000000000005 70.81299999999999 52.856 70.445 C 53.714 70.136 54.514 69.586 55.251000000000005 68.85 L 58.199000000000005 65.96 L 58.25900000000001 65.89999999999999 C 58.936 65.227 59.977 65.227 60.594 65.903 z" stroke-linecap="round" />
</g>
		<g transform="matrix(1 0 0 1 0 -10.44)"  >
<path style="stroke: none; stroke-width: 1; stroke-dasharray: none; stroke-linecap: butt; stroke-dashoffset: 0; stroke-linejoin: miter; stroke-miterlimit: 4; fill: rgb(101,101,101); fill-rule: nonzero; opacity: 1;" vector-effect="non-scaling-stroke"  transform=" translate(-50, -39.56)" d="M 79.629 41.034 C 79.629 41.527 79.506 41.955999999999996 79.138 42.263 L 66.792 54.602999999999994 L 66.792 44.535 L 59.304 44.535 L 59.304 36.428999999999995 L 34.618 36.428999999999995 L 34.618 56.08 L 20.925 42.385 C 20.557000000000002 42.077999999999996 20.373 41.588 20.373 41.094 L 20.373 40.971000000000004 C 20.373 40.480000000000004 20.557000000000002 39.99 20.925 39.68300000000001 L 44.257999999999996 16.412000000000006 C 45.364 15.306000000000006 46.346 14.447000000000006 47.206999999999994 13.894000000000005 C 48.24999999999999 13.156000000000006 49.169999999999995 12.849000000000006 49.96999999999999 12.849000000000006 C 50.82899999999999 12.849000000000006 51.75099999999999 13.156000000000006 52.79299999999999 13.894000000000005 C 53.654999999999994 14.446000000000005 54.63799999999999 15.305000000000005 55.74099999999999 16.412000000000006 L 55.803999999999995 16.473000000000006 L 79.137 39.806000000000004 C 79.506 40.113 79.629 40.604 79.629 41.034 z M 60.04 61.419 L 58.627 62.772999999999996 L 41.373 62.772999999999996 L 39.96 61.419 L 60.04 61.419 z M 56.541 64.858 L 55.805 65.658 L 55.742 65.717 L 55.129 66.272 L 44.872 66.272 L 44.258 65.717 L 43.461000000000006 64.859 L 56.541 64.859 z M 37.874 59.27 L 37.811 59.21 L 37.811 57.92 L 56.787 57.92 L 56.787 59.27 L 37.874 59.27 z M 60.962 36.428 L 66.48700000000001 42.937 L 60.96200000000001 42.937 L 60.96200000000001 36.428 z M 37.81 50.921 L 57.459 50.921 L 57.459 52.330999999999996 L 37.81 52.330999999999996 L 37.81 50.921 z M 37.81 54.421 L 59.795 54.421 L 59.795 55.833999999999996 L 37.81 55.833999999999996 L 37.81 54.421 z" stroke-linecap="round" />
</g>
		<g transform="matrix(1 0 0 1 -21.76 13.77)"  >
<path style="stroke: none; stroke-width: 1; stroke-dasharray: none; stroke-linecap: butt; stroke-dashoffset: 0; stroke-linejoin: miter; stroke-miterlimit: 4; fill: rgb(101,101,101); fill-rule: nonzero; opacity: 1;" vector-effect="non-scaling-stroke"  transform=" translate(-28.24, -63.77)" d="M 20.25 44.228 L 38.548 62.341 C 39.223 62.954 39.223 63.999 38.61 64.677 L 20.373 83.22 C 20.066000000000003 83.525 19.576 83.77 19.082 83.77 C 18.162 83.77 17.426000000000002 83.035 17.426000000000002 82.112 L 17.426000000000002 45.455 C 17.426000000000002 45.025999999999996 17.608 44.596 17.917 44.289 C 18.53 43.614 19.635 43.614 20.25 44.228 z" stroke-linecap="round" />
</g>
		<g transform="matrix(1 0 0 1 21.75 13.76)"  >
<path style="stroke: none; stroke-width: 1; stroke-dasharray: none; stroke-linecap: butt; stroke-dashoffset: 0; stroke-linejoin: miter; stroke-miterlimit: 4; fill: rgb(101,101,101); fill-rule: nonzero; opacity: 1;" vector-effect="non-scaling-stroke"  transform=" translate(-71.75, -63.76)" d="M 82.573 45.455 L 82.573 82.112 C 82.573 82.544 82.39099999999999 82.975 82.082 83.28 C 81.41 83.95700000000001 80.365 83.95700000000001 79.687 83.28 L 61.39 64.677 C 60.777 63.99900000000001 60.777 62.95400000000001 61.39 62.34100000000001 L 79.566 44.35100000000001 C 79.875 43.98300000000001 80.366 43.738000000000014 80.85600000000001 43.738000000000014 C 81.837 43.737 82.573 44.473 82.573 45.455 z" stroke-linecap="round" />
</g>
</g>
</g>
<g transform="matrix(1.39 -0.5 0.5 1.39 108.42 750.3)" id="53264851-16da-424b-a2af-13c2f5c9a23e"  >
<path style="stroke: rgb(0,0,0); stroke-width: 0; stroke-dasharray: none; stroke-linecap: butt; stroke-dashoffset: 0; stroke-linejoin: miter; stroke-miterlimit: 4; fill: rgb(101,101,101); fill-rule: nonzero; opacity: 1;" vector-effect="non-scaling-stroke"  transform=" translate(-50, -50)" d="M 87.294 41.605 L 61.56099999999999 37.833 L 50.00099999999999 14.532999999999998 L 38.43999999999999 37.833 L 12.70699999999999 41.605 L 31.32299999999999 59.797 L 26.94299999999999 85.467 L 50.001999999999995 73.362 L 73.06 85.467 L 68.739 59.797 L 87.294 41.605 z M 50.001 65.087 L 35.095 72.875 L 37.893 56.325 L 25.909 44.585 L 42.516 42.152 L 50.001 27.064 L 57.482 42.152 L 74.089 44.585 L 62.105 56.325 L 64.905 72.875 L 50.001 65.087 z" stroke-linecap="round" />
</g>
<g transform="matrix(1.3 0 0 1.3 499.75 426.09)" id="6527b2d3-3de8-4999-8b4c-b012fa5e6918"  >
<path style="stroke: rgb(0,0,0); stroke-width: 0; stroke-dasharray: none; stroke-linecap: butt; stroke-dashoffset: 0; stroke-linejoin: miter; stroke-miterlimit: 4; fill: rgb(101,101,101); fill-rule: nonzero; opacity: 1;" vector-effect="non-scaling-stroke"  transform=" translate(-50, -48.46)" d="M 52.974 18.768 L 17.441 54.302 C 14.142999999999999 57.653999999999996 12.466999999999999 61.98 12.466999999999999 66.361 C 12.466999999999999 70.74200000000002 14.142999999999999 75.12100000000001 17.441 78.422 C 20.741 81.776 25.121 83.39699999999999 29.502 83.39699999999999 C 33.829 83.39699999999999 38.21 81.776 41.563 78.422 L 83.58500000000001 36.4 C 86.233 33.75 87.533 30.342999999999996 87.533 26.881999999999998 C 87.533 23.473999999999997 86.179 20.066999999999997 83.58500000000001 17.470999999999997 L 83.58500000000001 17.416999999999998 C 80.989 14.820999999999998 77.58200000000001 13.522999999999998 74.12 13.522999999999998 C 70.71300000000001 13.522999999999998 67.25200000000001 14.820999999999998 64.65700000000001 17.416999999999998 L 32.151 49.919 C 30.204000000000004 51.921 29.177000000000003 54.516999999999996 29.177000000000003 57.11 C 29.177000000000003 59.708 30.204000000000004 62.303 32.151 64.305 C 34.152 66.25 36.749 67.28 39.344 67.28 L 39.344 67.223 C 41.939 67.223 44.589 66.25 46.538000000000004 64.30499999999999 L 73.146 37.69599999999999 L 69.415 33.96399999999999 L 42.807 60.573 C 41.889 61.546 40.588 62.032000000000004 39.345 62.032000000000004 L 39.345 61.979000000000006 C 38.102 61.979000000000006 36.803 61.54500000000001 35.885 60.57300000000001 C 34.911 59.65500000000001 34.477 58.354000000000006 34.477 57.11000000000001 C 34.477 55.86800000000001 34.910999999999994 54.56900000000001 35.885 53.651 L 68.386 21.148000000000003 C 69.955 19.579000000000004 72.064 18.768000000000004 74.119 18.768000000000004 C 76.23 18.768000000000004 78.339 19.580000000000005 79.906 21.148000000000003 C 81.47500000000001 22.716000000000005 82.286 24.825000000000003 82.286 26.881000000000004 C 82.286 28.990000000000002 81.475 31.099000000000004 79.906 32.667 L 37.83 74.745 C 35.559 77.013 32.531 78.149 29.500999999999998 78.149 C 26.473 78.149 23.443999999999996 77.012 21.119 74.745 L 21.173 74.745 C 18.848 72.417 17.712999999999997 69.39 17.712999999999997 66.36 C 17.712999999999997 63.333 18.848 60.303 21.173 58.03 L 56.703 22.445 L 52.974 18.768 z" stroke-linecap="round" />
</g>
<g transform="matrix(1.31 1.06 -1.06 1.31 568.69 209.23)" id="c7b7cc08-0eae-4010-b148-e281da9e48f0"  >
<path style="stroke: rgb(0,0,0); stroke-width: 0; stroke-dasharray: none; stroke-linecap: butt; stroke-dashoffset: 0; stroke-linejoin: miter; stroke-miterlimit: 4; fill: rgb(101,101,101); fill-rule: nonzero; opacity: 1;" vector-effect="non-scaling-stroke"  transform=" translate(-50, -50)" d="M 72.889 12.861 L 27.058999999999997 12.861 C 24.671999999999997 12.861 22.715999999999998 14.870000000000001 22.715999999999998 17.259 L 22.715999999999998 82.743 C 22.715999999999998 85.13 24.673 87.139 27.058999999999997 87.139 L 72.889 87.139 C 75.33099999999999 87.139 77.285 85.13 77.285 82.743 L 77.285 17.259 C 77.284 14.87 75.331 12.861 72.889 12.861 z M 38.301 78.725 C 38.301 79.37599999999999 37.759 79.863 37.160000000000004 79.863 L 29.940000000000005 79.863 C 29.285000000000004 79.863 28.799000000000007 79.377 28.799000000000007 78.725 L 28.799000000000007 71.50099999999999 C 28.799000000000007 70.90599999999999 29.285000000000007 70.36299999999999 29.940000000000005 70.36299999999999 L 37.160000000000004 70.36299999999999 C 37.759 70.36299999999999 38.301 70.90599999999999 38.301 71.50099999999999 L 38.301 78.725 z M 38.301 62.87 C 38.301 63.464999999999996 37.759 64.011 37.160000000000004 64.011 L 29.940000000000005 64.011 C 29.285000000000004 64.011 28.799000000000007 63.464999999999996 28.799000000000007 62.87 L 28.799000000000007 55.592999999999996 C 28.799000000000007 54.995 29.285000000000007 54.452 29.940000000000005 54.452 L 37.160000000000004 54.452 C 37.759 54.452 38.301 54.995 38.301 55.592999999999996 L 38.301 62.87 z M 38.301 46.959 C 38.301 47.556000000000004 37.759 48.098000000000006 37.160000000000004 48.098000000000006 L 29.940000000000005 48.098000000000006 C 29.285000000000004 48.098000000000006 28.799000000000007 47.556000000000004 28.799000000000007 46.959 L 28.799000000000007 39.737 C 28.799000000000007 39.086 29.285000000000007 38.598 29.940000000000005 38.598 L 37.160000000000004 38.598 C 37.759 38.598 38.301 39.086 38.301 39.737 L 38.301 46.959 z M 54.751 78.725 C 54.751 79.37599999999999 54.208999999999996 79.863 53.614 79.863 L 46.39 79.863 C 45.739 79.863 45.249 79.377 45.249 78.725 L 45.249 71.50099999999999 C 45.249 70.90599999999999 45.739000000000004 70.36299999999999 46.39 70.36299999999999 L 53.615 70.36299999999999 C 54.21 70.36299999999999 54.752 70.90599999999999 54.752 71.50099999999999 L 54.752 78.725 z M 54.751 62.87 C 54.751 63.464999999999996 54.208999999999996 64.011 53.614 64.011 L 46.39 64.011 C 45.739 64.011 45.249 63.464999999999996 45.249 62.87 L 45.249 55.592999999999996 C 45.249 54.995 45.739000000000004 54.452 46.39 54.452 L 53.615 54.452 C 54.21 54.452 54.752 54.995 54.752 55.592999999999996 L 54.752 62.87 z M 54.751 46.959 C 54.751 47.556000000000004 54.208999999999996 48.098000000000006 53.614 48.098000000000006 L 46.39 48.098000000000006 C 45.739 48.098000000000006 45.249 47.556000000000004 45.249 46.959 L 45.249 39.737 C 45.249 39.086 45.739000000000004 38.598 46.39 38.598 L 53.615 38.598 C 54.21 38.598 54.752 39.086 54.752 39.737 L 54.752 46.959 z M 71.205 78.725 C 71.205 79.37599999999999 70.66199999999999 79.863 70.063 79.863 L 62.843 79.863 C 62.192 79.863 61.701 79.377 61.701 78.725 L 61.701 71.50099999999999 C 61.701 70.90599999999999 62.191 70.36299999999999 62.843 70.36299999999999 L 70.063 70.36299999999999 C 70.662 70.36299999999999 71.205 70.90599999999999 71.205 71.50099999999999 L 71.205 78.725 z M 71.205 62.87 C 71.205 63.464999999999996 70.66199999999999 64.011 70.063 64.011 L 62.843 64.011 C 62.192 64.011 61.701 63.464999999999996 61.701 62.87 L 61.701 55.592999999999996 C 61.701 54.995 62.191 54.452 62.843 54.452 L 70.063 54.452 C 70.662 54.452 71.205 54.995 71.205 55.592999999999996 L 71.205 62.87 z M 71.205 46.959 C 71.205 47.556000000000004 70.66199999999999 48.098000000000006 70.063 48.098000000000006 L 62.843 48.098000000000006 C 62.192 48.098000000000006 61.701 47.556000000000004 61.701 46.959 L 61.701 39.737 C 61.701 39.086 62.191 38.598 62.843 38.598 L 70.063 38.598 C 70.662 38.598 71.205 39.086 71.205 39.737 L 71.205 46.959 z M 71.964 30.183 C 71.964 31.758 70.66199999999999 33.06 69.087 33.06 L 30.86 33.06 C 29.285 33.06 28.038999999999998 31.758000000000003 28.038999999999998 30.183000000000003 L 28.038999999999998 21.440000000000005 C 28.038999999999998 19.865000000000006 29.284999999999997 18.617000000000004 30.86 18.617000000000004 L 69.08699999999999 18.617000000000004 C 70.66199999999999 18.617000000000004 71.96399999999998 19.865000000000006 71.96399999999998 21.440000000000005 L 71.96399999999998 30.183 z" stroke-linecap="round" />
</g>
<g transform="matrix(1 0 0 1 932.89 630.38)"  >
<g style="" vector-effect="non-scaling-stroke"   >
		<g transform="matrix(1 0 0 1 -23.01 1.44)"  >
<path style="stroke: none; stroke-width: 1; stroke-dasharray: none; stroke-linecap: butt; stroke-dashoffset: 0; stroke-linejoin: miter; stroke-miterlimit: 4; fill: rgb(101,101,101); fill-rule: nonzero; opacity: 1;" vector-effect="non-scaling-stroke"  transform=" translate(-26.99, -51.44)" d="M 17.167 17.104 C 19.436 16.122999999999998 21.89 15.937 24.470000000000002 16.491 L 36.80500000000001 85.472 C 34.534000000000006 86.884 32.07900000000001 87.06599999999999 29.439000000000007 86.085 C 25.328 63.133 21.277 40.119 17.167 17.104 z" stroke-linecap="round" />
</g>
		<g transform="matrix(1 0 0 1 5 -15.8)"  >
<polygon style="stroke: none; stroke-width: 1; stroke-dasharray: none; stroke-linecap: butt; stroke-dashoffset: 0; stroke-linejoin: miter; stroke-miterlimit: 4; fill: rgb(101,101,101); fill-rule: nonzero; opacity: 1;" vector-effect="non-scaling-stroke"  points="-22.68,-18.26 -20.77,-19.18 -18.93,-19.85 -17.09,-20.34 -15.31,-20.65 -13.53,-20.84 -11.81,-20.9 -10.09,-20.77 -8.38,-20.53 -6.66,-20.22 -5,-19.79 -3.35,-19.3 -1.69,-18.75 -0.09,-18.2 1.56,-17.58 3.16,-16.91 4.76,-16.29 6.35,-15.74 7.95,-15.13 9.54,-14.64 11.14,-14.21 12.74,-13.9 14.33,-13.72 15.93,-13.65 17.58,-13.78 19.18,-14.08 20.84,-14.64 22.31,-15.31 27.83,19.98 27.83,19.98 26.54,20.47 25.26,20.77 24.03,20.9 22.8,20.9 21.57,20.83 20.28,20.59 19,20.28 17.71,19.85 16.36,19.36 15.01,18.81 13.6,18.2 12.18,17.52 10.71,16.85 9.18,16.17 7.64,15.5 6.05,14.88 4.39,14.27 2.73,13.78 0.95,13.35 -0.83,12.98 -2.73,12.8 -4.63,12.8 -6.6,12.92 -8.62,13.23 -10.71,13.78 -12.86,14.51 -15.07,15.44 -17.28,16.66 -19.55,18.13 -21.39,19.49 -27.83,-14.76 -26.67,-15.68 -24.64,-17.09 " />
</g>
</g>
</g>
<g transform="matrix(0.99 0.16 -0.16 0.99 962.41 211.67)"  >
<g style="" vector-effect="non-scaling-stroke"   >
		<g transform="matrix(1 0 0 1 0.21 -14.88)"  >
<ellipse style="stroke: none; stroke-width: 1; stroke-dasharray: none; stroke-linecap: butt; stroke-dashoffset: 0; stroke-linejoin: miter; stroke-miterlimit: 4; fill: rgb(101,101,101); fill-rule: nonzero; opacity: 1;" vector-effect="non-scaling-stroke"  cx="0" cy="0" rx="18.519" ry="20.634" />
</g>
		<g transform="matrix(1 0 0 1 0 20.02)"  >
<polygon style="stroke: none; stroke-width: 1; stroke-dasharray: none; stroke-linecap: butt; stroke-dashoffset: 0; stroke-linejoin: miter; stroke-miterlimit: 4; fill: rgb(101,101,101); fill-rule: nonzero; opacity: 1;" vector-effect="non-scaling-stroke"  points="-17.95,-15.45 -17.28,-15.45 -16.87,-15.35 -16.46,-15.19 -16.04,-14.99 -15.68,-14.73 -15.22,-14.37 -14.8,-13.9 -14.34,-13.28 -13.88,-12.61 -13.41,-11.84 -13,-10.91 -12.54,-9.98 -12.12,-8.95 -11.71,-7.81 -11.35,-6.68 -10.99,-5.55 -10.63,-4.31 -10.27,-3.12 -9.9,-1.94 -9.54,-0.7 -9.23,0.49 -8.87,1.67 -8.46,2.81 -8.1,3.95 -7.63,5.03 -7.12,6.17 -6.55,7.19 -5.78,8.28 -4.8,9.36 -3.51,10.34 -1.85,11.01 0,11.27 1.91,11.01 3.56,10.29 4.9,9.31 5.83,8.23 6.55,7.14 7.17,6.06 7.69,4.92 8.1,3.84 8.51,2.66 8.87,1.52 9.23,0.34 9.6,-0.85 9.96,-2.09 10.32,-3.33 10.68,-4.51 11.04,-5.7 11.45,-6.89 11.86,-8.02 12.28,-9.11 12.74,-10.14 13.21,-11.06 13.72,-11.94 14.19,-12.72 14.7,-13.39 15.22,-13.95 15.68,-14.42 16.15,-14.73 16.66,-15.04 17.13,-15.24 17.69,-15.4 18.31,-15.45 19.24,-15.5 19.86,-15.45 20.38,-15.4 20.89,-15.35 21.41,-15.24 21.87,-15.14 22.39,-15.04 22.85,-14.88 23.27,-14.68 23.73,-14.52 24.14,-14.32 24.55,-14.06 24.92,-13.85 25.28,-13.59 25.64,-13.33 26,-13.03 26.31,-12.77 26.62,-12.46 26.88,-12.15 27.13,-11.84 27.39,-11.53 27.6,-11.22 27.81,-10.91 28.01,-10.65 28.16,-10.34 28.27,-10.09 28.37,-9.78 28.48,-9.57 28.53,-9.31 28.58,-9.16 28.63,-8.95 28.63,-8.85 28.63,-8.64 28.63,11.73 28.63,12.2 28.58,12.56 28.48,12.92 28.37,13.23 28.22,13.54 28.01,13.85 27.81,14.11 27.55,14.37 27.24,14.62 26.93,14.88 26.62,15.04 26.26,15.19 25.9,15.34 25.53,15.45 25.12,15.5 24.61,15.5 -24.61,15.5 -25.12,15.5 -25.48,15.45 -25.9,15.34 -26.26,15.19 -26.62,15.04 -26.93,14.88 -27.24,14.62 -27.5,14.37 -27.75,14.11 -27.96,13.85 -28.16,13.54 -28.32,13.23 -28.42,12.92 -28.53,12.56 -28.58,12.2 -28.63,11.73 -28.63,-8.64 -28.63,-8.8 -28.58,-8.85 -28.58,-9 -28.53,-9.16 -28.47,-9.36 -28.37,-9.57 -28.27,-9.83 -28.11,-10.09 -27.91,-10.4 -27.7,-10.7 -27.5,-11.01 -27.24,-11.32 -26.93,-11.63 -26.62,-11.94 -26.31,-12.25 -25.95,-12.56 -25.59,-12.87 -25.17,-13.18 -24.76,-13.44 -24.3,-13.7 -23.83,-13.95 -23.37,-14.21 -22.9,-14.42 -22.39,-14.62 -21.87,-14.83 -21.3,-14.99 -20.79,-15.14 -20.22,-15.24 -19.66,-15.35 -19.03,-15.4 -18.47,-15.45 " />
</g>
</g>
</g>
<g transform="matrix(0.99 -0.13 0.13 0.99 97.3 86.23)" id="2ee5542e-5f6d-4540-a2bd-72e568cfe720"  >
<path style="stroke: rgb(0,0,0); stroke-width: 0; stroke-dasharray: none; stroke-linecap: butt; stroke-dashoffset: 0; stroke-linejoin: miter; stroke-miterlimit: 4; fill: rgb(101,101,101); fill-rule: nonzero; opacity: 1;" vector-effect="non-scaling-stroke"  transform=" translate(-50, -50)" d="M 14.148 44.105 L 18.091 40.162 C 20.01 38.242 23.176000000000002 38.242 25.096 40.162 L 42.164 57.230999999999995 L 74.904 24.440999999999995 C 76.823 22.521999999999995 79.98899999999999 22.521999999999995 81.90899999999999 24.440999999999995 L 85.851 28.383999999999997 C 87.771 30.302999999999997 87.771 33.415 85.851 35.334999999999994 L 45.641 75.54499999999999 L 45.537 75.64899999999999 L 45.433 75.75299999999999 L 45.329 75.80499999999999 L 45.277 75.90899999999999 L 45.173 75.961 L 45.069 76.065 L 44.965 76.117 L 44.861000000000004 76.16900000000001 L 44.757000000000005 76.27400000000002 L 44.653000000000006 76.32400000000001 L 44.54900000000001 76.37800000000001 L 44.44500000000001 76.43000000000002 L 44.34100000000001 76.48200000000003 L 44.23700000000001 76.53400000000003 L 44.08000000000001 76.58600000000004 L 43.97600000000001 76.63800000000005 L 43.872000000000014 76.69000000000005 L 43.768000000000015 76.74200000000006 L 43.664000000000016 76.74200000000006 L 43.56000000000002 76.79400000000007 L 43.405000000000015 76.84700000000007 L 43.301000000000016 76.84700000000007 L 43.19700000000002 76.89900000000007 L 42.93800000000002 76.89900000000007 L 42.83400000000002 76.95100000000008 L 42.62600000000002 76.95100000000008 L 42.47100000000002 77.00300000000009 L 41.795000000000016 77.00300000000009 L 41.640000000000015 76.95100000000008 L 41.432000000000016 76.95100000000008 L 41.32800000000002 76.89900000000007 L 41.06900000000002 76.89900000000007 L 40.96500000000002 76.84700000000007 L 40.86100000000002 76.84700000000007 L 40.70600000000002 76.79400000000007 L 40.60200000000002 76.74200000000006 L 40.49800000000002 76.74200000000006 L 40.39400000000002 76.69000000000005 L 40.29000000000002 76.63800000000005 L 40.185000000000024 76.58600000000004 L 40.081000000000024 76.53400000000003 L 40.029000000000025 76.53400000000003 C 39.563000000000024 76.32500000000003 39.096000000000025 75.96200000000003 38.630000000000024 75.54800000000003 L 14.140000000000025 51.059000000000026 C 12.229 49.137 12.229 46.025 14.148 44.105 z" stroke-linecap="round" />
</g>
<g transform="matrix(1.12 0.52 -0.52 1.12 800.48 115.28)"  >
<g style="" vector-effect="non-scaling-stroke"   >
		<g transform="matrix(1 0 0 1 0.62 0.46)"  >
<polygon style="stroke: none; stroke-width: 1; stroke-dasharray: none; stroke-linecap: butt; stroke-dashoffset: 0; stroke-linejoin: miter; stroke-miterlimit: 4; fill: rgb(101,101,101); fill-rule: nonzero; opacity: 1;" vector-effect="non-scaling-stroke"  points="22.56,11.37 19.82,11.37 19.82,3.85 -19.87,3.85 -19.87,11.37 -22.56,11.37 -22.45,0.94 -1.48,0.94 -1.69,-11.37 1.8,-11.37 1.75,0.94 22.56,0.94 " />
</g>
		<g transform="matrix(1 0 0 1 -0.3 -22.96)"  >
<rect style="stroke: none; stroke-width: 1; stroke-dasharray: none; stroke-linecap: butt; stroke-dashoffset: 0; stroke-linejoin: miter; stroke-miterlimit: 4; fill: rgb(101,101,101); fill-rule: nonzero; opacity: 1;" vector-effect="non-scaling-stroke"  x="-21.806" y="-13.229" rx="0" ry="0" width="43.612" height="26.458" />
</g>
		<g transform="matrix(1 0 0 1 -20.84 23.61)"  >
<rect style="stroke: none; stroke-width: 1; stroke-dasharray: none; stroke-linecap: butt; stroke-dashoffset: 0; stroke-linejoin: miter; stroke-miterlimit: 4; fill: rgb(101,101,101); fill-rule: nonzero; opacity: 1;" vector-effect="non-scaling-stroke"  x="-15.4615" y="-12.5845" rx="0" ry="0" width="30.923" height="25.169" />
</g>
		<g transform="matrix(1 0 0 1 20.84 23.61)"  >
<rect style="stroke: none; stroke-width: 1; stroke-dasharray: none; stroke-linecap: butt; stroke-dashoffset: 0; stroke-linejoin: miter; stroke-miterlimit: 4; fill: rgb(101,101,101); fill-rule: nonzero; opacity: 1;" vector-effect="non-scaling-stroke"  x="-15.463" y="-12.5845" rx="0" ry="0" width="30.926" height="25.169" />
</g>
</g>
</g>
<g transform="matrix(0.97 0.25 -0.25 0.97 366.61 104.68)" id="40c3b5a1-04bc-432d-95d3-b5b81440c9f4"  >
<path style="stroke: rgb(0,0,0); stroke-width: 0; stroke-dasharray: none; stroke-linecap: butt; stroke-dashoffset: 0; stroke-linejoin: miter; stroke-miterlimit: 4; fill: rgb(101,101,101); fill-rule: nonzero; opacity: 1;" vector-effect="non-scaling-stroke"  transform=" translate(-50, -50)" d="M 40.747 13.955 L 59.254000000000005 13.955 C 60.353 13.955 61.242000000000004 14.845 61.242000000000004 15.941 L 61.242000000000004 38.787 L 84.08600000000001 38.787 C 85.18400000000001 38.787 86.07000000000001 39.675 86.07000000000001 40.772999999999996 L 86.07000000000001 59.226 C 86.07000000000001 60.324999999999996 85.183 61.211999999999996 84.08600000000001 61.211999999999996 L 61.242 61.211999999999996 L 61.242 84.05799999999999 C 61.242 85.157 60.352 86.044 59.254 86.044 L 40.747 86.044 C 39.652 86.044 38.762 85.15599999999999 38.762 84.05799999999999 L 38.762 61.213 L 15.915 61.213 C 14.819999999999999 61.213 13.93 60.325 13.93 59.227000000000004 L 13.93 40.773 C 13.93 39.67400000000001 14.82 38.787000000000006 15.915 38.787000000000006 L 38.762 38.787000000000006 L 38.762 15.941 C 38.762 14.845 39.651 13.955 40.747 13.955 z" stroke-linecap="round" />
</g>
</svg>